<svg width="76" height="40" viewBox="0 0 76 40" fill="none" xmlns="http://www.w3.org/2000/svg">
<path d="M70 24.9999C70 26.6569 71.3429 28 72.9993 28C74.6564 28 76 26.6569 76 24.9999C76 23.3431 74.6564 22 72.9993 22C71.3429 22 70 23.3431 70 24.9999Z" fill="#E74362"/>
<path d="M2.32422 24.2598C3.04688 25.2689 3.89323 25.7734 4.86328 25.7734C5.50781 25.7734 6.02865 25.5911 6.42578 25.2266C6.82292 24.862 7.02148 24.377 7.02148 23.7715C7.02148 23.179 6.82617 22.6875 6.43555 22.2969C6.05143 21.9062 5.25065 21.7109 4.0332 21.7109H3.44727V19.2695H4.0332C4.75586 19.2695 5.30273 19.1035 5.67383 18.7715C6.05143 18.4395 6.24023 17.9935 6.24023 17.4336C6.24023 16.9193 6.08398 16.5124 5.77148 16.2129C5.45898 15.9134 5.04557 15.7637 4.53125 15.7637C3.91927 15.7637 3.29102 16.0664 2.64648 16.6719L1.03516 14.875C1.90104 14.0938 2.6237 13.6283 3.20312 13.4785C3.78255 13.3223 4.31641 13.2441 4.80469 13.2441C5.97656 13.2441 6.95964 13.5859 7.75391 14.2695C8.55469 14.9531 8.95508 15.8743 8.95508 17.0332C8.95508 17.5475 8.86393 18.0488 8.68164 18.5371C8.50586 19.0254 8.00781 19.543 7.1875 20.0898C8.86719 20.8385 9.70703 22.1178 9.70703 23.9277C9.70703 25.2624 9.25781 26.3366 8.35938 27.1504C7.46745 27.9577 6.31836 28.3613 4.91211 28.3613C4.02669 28.3613 3.23242 28.2018 2.5293 27.8828C1.82617 27.5573 1.0612 26.8607 0.234375 25.793L2.32422 24.2598ZM17.5922 13.6348H20.3559L24.975 25.4316H26.5766V30.1484H23.9301V28H14.0473V30.1484H11.4008V25.4316H12.9926L17.5922 13.6348ZM18.9984 17.4434L15.8539 25.4316H22.1332L18.9984 17.4434ZM28.9637 13.6348H36.8055V16.3105H31.6785V18.9082H36.8055V21.5352H31.6785V25.3145H36.8055V28H28.9637V13.6348ZM53.1672 16.1641L51.2531 17.9902C49.951 16.6165 48.4862 15.9297 46.8586 15.9297C45.4849 15.9297 44.326 16.3984 43.382 17.3359C42.4445 18.2734 41.9758 19.429 41.9758 20.8027C41.9758 21.7598 42.1841 22.6094 42.6008 23.3516C43.0174 24.0938 43.6066 24.6764 44.3684 25.0996C45.1301 25.5228 45.9764 25.7344 46.9074 25.7344C47.7017 25.7344 48.4276 25.5879 49.0852 25.2949C49.7427 24.9954 50.4654 24.4551 51.2531 23.6738L53.1086 25.6074C52.0474 26.6426 51.0448 27.362 50.1008 27.7656C49.1568 28.1628 48.0793 28.3613 46.8684 28.3613C44.6353 28.3613 42.8059 27.6549 41.3801 26.2422C39.9608 24.8229 39.2512 23.0065 39.2512 20.793C39.2512 19.3607 39.5734 18.0879 40.218 16.9746C40.869 15.8613 41.7967 14.9661 43.0012 14.2891C44.2121 13.612 45.5142 13.2734 46.9074 13.2734C48.0923 13.2734 49.2316 13.5241 50.3254 14.0254C51.4257 14.5267 52.3729 15.2396 53.1672 16.1641ZM56.1598 28V13.6348H58.8941V19.0547H59.4898C60.6292 19.0547 61.5764 19.1882 62.3316 19.4551C63.0934 19.7155 63.7509 20.2168 64.3043 20.959C64.8577 21.6947 65.1344 22.5833 65.1344 23.625C65.1344 24.6081 64.8967 25.4414 64.4215 26.125C63.9462 26.8086 63.3928 27.2936 62.7613 27.5801C62.1363 27.86 61.277 28 60.1832 28H56.1598ZM58.8941 21.4961V25.3926H59.5777C60.7105 25.3926 61.469 25.2526 61.8531 24.9727C62.2372 24.6927 62.4293 24.2142 62.4293 23.5371C62.4293 22.1764 61.4397 21.4961 59.4605 21.4961H58.8941Z" fill="white"/>
</svg>
