<svg width="50" height="50" viewBox="0 0 50 50" fill="none" xmlns="http://www.w3.org/2000/svg">
<rect width="50" height="50" rx="25" fill="#D9D9D9"/>
<path d="M32.9337 31.225C32.4915 30.1777 31.8499 29.2265 31.0446 28.4242C30.2417 27.6196 29.2906 26.9781 28.2438 26.5352C28.2344 26.5305 28.2251 26.5281 28.2157 26.5234C29.6758 25.4688 30.6251 23.7508 30.6251 21.8125C30.6251 18.6016 28.0235 16 24.8126 16C21.6016 16 19.0001 18.6016 19.0001 21.8125C19.0001 23.7508 19.9493 25.4688 21.4094 26.5258C21.4001 26.5305 21.3907 26.5328 21.3813 26.5375C20.3313 26.9805 19.3891 27.6156 18.5805 28.4266C17.7759 29.2295 17.1344 30.1806 16.6915 31.2273C16.2563 32.2522 16.0216 33.3509 16.0001 34.4641C15.9994 34.4891 16.0038 34.514 16.013 34.5373C16.0221 34.5605 16.0358 34.5818 16.0533 34.5997C16.0708 34.6176 16.0916 34.6318 16.1147 34.6415C16.1378 34.6513 16.1625 34.6563 16.1876 34.6562H17.5938C17.6969 34.6562 17.779 34.5742 17.7813 34.4734C17.8282 32.6641 18.5547 30.9695 19.8391 29.6852C21.168 28.3563 22.9329 27.625 24.8126 27.625C26.6922 27.625 28.4571 28.3563 29.786 29.6852C31.0704 30.9695 31.7969 32.6641 31.8438 34.4734C31.8462 34.5766 31.9282 34.6562 32.0313 34.6562H33.4376C33.4626 34.6563 33.4874 34.6513 33.5104 34.6415C33.5335 34.6318 33.5544 34.6176 33.5718 34.5997C33.5893 34.5818 33.603 34.5605 33.6122 34.5373C33.6213 34.514 33.6257 34.4891 33.6251 34.4641C33.6016 33.3438 33.3696 32.2539 32.9337 31.225ZM24.8126 25.8438C23.7368 25.8438 22.7243 25.4242 21.9626 24.6625C21.2008 23.9008 20.7813 22.8883 20.7813 21.8125C20.7813 20.7367 21.2008 19.7242 21.9626 18.9625C22.7243 18.2008 23.7368 17.7812 24.8126 17.7812C25.8883 17.7812 26.9008 18.2008 27.6626 18.9625C28.4243 19.7242 28.8438 20.7367 28.8438 21.8125C28.8438 22.8883 28.4243 23.9008 27.6626 24.6625C26.9008 25.4242 25.8883 25.8438 24.8126 25.8438Z" fill="black"/>
</svg>
