<svg width="59" height="32" viewBox="0 0 59 32" fill="none" xmlns="http://www.w3.org/2000/svg">
<rect x="0.5" y="0.5" width="58" height="31" rx="5.5" stroke="#3182CE"/>
<path fill-rule="evenodd" clip-rule="evenodd" d="M20.25 10C20.25 9.58579 20.5858 9.25 21 9.25H32.25C32.6642 9.25 33 9.58579 33 10C33 10.4142 32.6642 10.75 32.25 10.75H21C20.5858 10.75 20.25 10.4142 20.25 10ZM34.5 10C34.5 9.58579 34.8358 9.25 35.25 9.25H39C39.4142 9.25 39.75 9.58579 39.75 10C39.75 10.4142 39.4142 10.75 39 10.75H35.25C34.8358 10.75 34.5 10.4142 34.5 10ZM20.25 16C20.25 15.5858 20.5858 15.25 21 15.25H24.75C25.1642 15.25 25.5 15.5858 25.5 16C25.5 16.4142 25.1642 16.75 24.75 16.75H21C20.5858 16.75 20.25 16.4142 20.25 16ZM27 16C27 15.5858 27.3358 15.25 27.75 15.25H39C39.4142 15.25 39.75 15.5858 39.75 16C39.75 16.4142 39.4142 16.75 39 16.75H27.75C27.3358 16.75 27 16.4142 27 16ZM20.25 22C20.25 21.5858 20.5858 21.25 21 21.25H32.25C32.6642 21.25 33 21.5858 33 22C33 22.4142 32.6642 22.75 32.25 22.75H21C20.5858 22.75 20.25 22.4142 20.25 22ZM34.5 22C34.5 21.5858 34.8358 21.25 35.25 21.25H39C39.4142 21.25 39.75 21.5858 39.75 22C39.75 22.4142 39.4142 22.75 39 22.75H35.25C34.8358 22.75 34.5 22.4142 34.5 22Z" fill="#3182CE"/>
<path fill-rule="evenodd" clip-rule="evenodd" d="M33.75 9.25C33.3358 9.25 33 9.58579 33 10C33 10.4142 33.3358 10.75 33.75 10.75C34.1642 10.75 34.5 10.4142 34.5 10C34.5 9.58579 34.1642 9.25 33.75 9.25ZM31.5 10C31.5 8.75736 32.5074 7.75 33.75 7.75C34.9926 7.75 36 8.75736 36 10C36 11.2426 34.9926 12.25 33.75 12.25C32.5074 12.25 31.5 11.2426 31.5 10Z" fill="#3182CE"/>
<path fill-rule="evenodd" clip-rule="evenodd" d="M26.25 15.25C25.8358 15.25 25.5 15.5858 25.5 16C25.5 16.4142 25.8358 16.75 26.25 16.75C26.6642 16.75 27 16.4142 27 16C27 15.5858 26.6642 15.25 26.25 15.25ZM24 16C24 14.7574 25.0074 13.75 26.25 13.75C27.4926 13.75 28.5 14.7574 28.5 16C28.5 17.2426 27.4926 18.25 26.25 18.25C25.0074 18.25 24 17.2426 24 16Z" fill="#3182CE"/>
<path fill-rule="evenodd" clip-rule="evenodd" d="M33.75 21.25C33.3358 21.25 33 21.5858 33 22C33 22.4142 33.3358 22.75 33.75 22.75C34.1642 22.75 34.5 22.4142 34.5 22C34.5 21.5858 34.1642 21.25 33.75 21.25ZM31.5 22C31.5 20.7574 32.5074 19.75 33.75 19.75C34.9926 19.75 36 20.7574 36 22C36 23.2426 34.9926 24.25 33.75 24.25C32.5074 24.25 31.5 23.2426 31.5 22Z" fill="#3182CE"/>
</svg>
