<svg width="15" height="14" viewBox="0 0 15 14" fill="none" xmlns="http://www.w3.org/2000/svg">
<path d="M11.812 13.9985C11.7068 13.9989 11.6041 13.9661 11.5186 13.9048L7.49922 10.9914L3.47987 13.9048C3.394 13.967 3.29055 14.0004 3.18447 14C3.07839 13.9996 2.97518 13.9655 2.88977 13.9026C2.80435 13.8397 2.74115 13.7513 2.70931 13.6501C2.67747 13.549 2.67863 13.4403 2.71263 13.3398L4.28024 8.69768L0.217452 5.91214C0.129449 5.85187 0.0630295 5.76505 0.0278979 5.66435C-0.00723366 5.56365 -0.00923621 5.45436 0.0221829 5.35245C0.053602 5.25053 0.116796 5.16133 0.202532 5.09788C0.288268 5.03443 0.392052 5.00005 0.498722 4.99977H5.51095L7.02356 0.345741C7.05615 0.245262 7.11973 0.157684 7.20518 0.0955702C7.29063 0.0334567 7.39357 0 7.49922 0C7.60487 0 7.70781 0.0334567 7.79326 0.0955702C7.87871 0.157684 7.94229 0.245262 7.97488 0.345741L9.48749 5.00133H14.4997C14.6065 5.00128 14.7105 5.03542 14.7965 5.09875C14.8825 5.16208 14.946 5.25127 14.9776 5.35326C15.0092 5.45526 15.0073 5.56469 14.9722 5.66554C14.9371 5.76639 14.8707 5.85336 14.7825 5.9137L10.7182 8.69768L12.2849 13.3386C12.3103 13.4137 12.3174 13.4938 12.3057 13.5723C12.294 13.6507 12.2638 13.7252 12.2176 13.7897C12.1714 13.8542 12.1106 13.9067 12.04 13.943C11.9695 13.9793 11.8914 13.9984 11.812 13.9985Z" fill="#E74362"/>
</svg>
