<svg width="15" height="14" viewBox="0 0 15 14" fill="none" xmlns="http://www.w3.org/2000/svg">
<path fill-rule="evenodd" clip-rule="evenodd" d="M7.50004 0.875C7.7031 0.875 7.88307 0.99703 7.94583 1.17727L9.36401 5.25H14.0625C14.268 5.25 14.4495 5.37484 14.5103 5.55799C14.5711 5.74113 14.4971 5.93989 14.3276 6.04832L10.5185 8.48616L11.9871 12.5476C12.0524 12.728 11.9851 12.927 11.8209 13.0398C11.6567 13.1527 11.4331 13.1535 11.268 13.0418L7.50004 10.4934L3.73212 13.0418C3.56697 13.1535 3.3434 13.1527 3.17916 13.0398C3.01492 12.927 2.94771 12.728 3.01293 12.5476L4.48157 8.48616L0.672444 6.04832C0.503019 5.93989 0.428981 5.74113 0.489795 5.55799C0.55061 5.37484 0.732104 5.25 0.937535 5.25H5.63606L7.05424 1.17727C7.117 0.99703 7.29697 0.875 7.50004 0.875ZM7.50004 2.72796L6.4224 5.82272C6.35963 6.00297 6.17966 6.125 5.9766 6.125H2.45L5.30419 7.95168C5.47718 8.0624 5.55031 8.26691 5.48323 8.4524L4.37058 11.5294L7.22498 9.59886C7.38908 9.48788 7.611 9.48788 7.77509 9.59886L10.6295 11.5294L9.51684 8.4524C9.44976 8.26691 9.52289 8.0624 9.69588 7.95168L12.5501 6.125H9.02347C8.82041 6.125 8.64044 6.00297 8.57767 5.82272L7.50004 2.72796Z" fill="#8E8E8E"/>
</svg>
