<svg width="117" height="40" viewBox="0 0 117 40" fill="none" xmlns="http://www.w3.org/2000/svg">
<path d="M110 29.4999C110 31.4331 111.567 33 113.499 33C115.432 33 117 31.4331 117 29.4999C117 27.5669 115.432 26 113.499 26C111.567 26 110 27.5669 110 29.4999Z" fill="#E74362"/>
<path d="M3.71875 27.0156C4.875 28.6302 6.22917 29.4375 7.78125 29.4375C8.8125 29.4375 9.64583 29.1458 10.2812 28.5625C10.9167 27.9792 11.2344 27.2031 11.2344 26.2344C11.2344 25.2865 10.9219 24.5 10.2969 23.875C9.68229 23.25 8.40104 22.9375 6.45312 22.9375H5.51562V19.0312H6.45312C7.60938 19.0312 8.48438 18.7656 9.07812 18.2344C9.68229 17.7031 9.98438 16.9896 9.98438 16.0938C9.98438 15.2708 9.73438 14.6198 9.23438 14.1406C8.73438 13.6615 8.07292 13.4219 7.25 13.4219C6.27083 13.4219 5.26562 13.9062 4.23438 14.875L1.65625 12C3.04167 10.75 4.19792 10.0052 5.125 9.76562C6.05208 9.51562 6.90625 9.39062 7.6875 9.39062C9.5625 9.39062 11.1354 9.9375 12.4062 11.0312C13.6875 12.125 14.3281 13.599 14.3281 15.4531C14.3281 16.276 14.1823 17.0781 13.8906 17.8594C13.6094 18.6406 12.8125 19.4688 11.5 20.3438C14.1875 21.5417 15.5312 23.5885 15.5312 26.4844C15.5312 28.6198 14.8125 30.3385 13.375 31.6406C11.9479 32.9323 10.1094 33.5781 7.85938 33.5781C6.44271 33.5781 5.17188 33.3229 4.04688 32.8125C2.92188 32.2917 1.69792 31.1771 0.375 29.4688L3.71875 27.0156ZM28.1475 10.0156H32.5694L39.96 28.8906H42.5225V36.4375H38.2881V33H22.4756V36.4375H18.2412V28.8906H20.7881L28.1475 10.0156ZM30.3975 16.1094L25.3662 28.8906H35.4131L30.3975 16.1094ZM46.3419 10.0156H58.8887V14.2969H50.6856V18.4531H58.8887V22.6562H50.6856V28.7031H58.8887V33H46.3419V10.0156ZM85.0675 14.0625L82.005 16.9844C79.9217 14.7865 77.5779 13.6875 74.9738 13.6875C72.7758 13.6875 70.9217 14.4375 69.4113 15.9375C67.9113 17.4375 67.1613 19.2865 67.1613 21.4844C67.1613 23.0156 67.4946 24.375 68.1613 25.5625C68.8279 26.75 69.7706 27.6823 70.9894 28.3594C72.2081 29.0365 73.5623 29.375 75.0519 29.375C76.3227 29.375 77.4842 29.1406 78.5363 28.6719C79.5883 28.1927 80.7446 27.3281 82.005 26.0781L84.9738 29.1719C83.2758 30.8281 81.6717 31.9792 80.1613 32.625C78.6508 33.2604 76.9269 33.5781 74.9894 33.5781C71.4165 33.5781 68.4894 32.4479 66.2081 30.1875C63.9373 27.9167 62.8019 25.0104 62.8019 21.4688C62.8019 19.1771 63.3175 17.1406 64.3488 15.3594C65.3904 13.5781 66.8748 12.1458 68.8019 11.0625C70.7394 9.97917 72.8227 9.4375 75.0519 9.4375C76.9477 9.4375 78.7706 9.83854 80.5206 10.6406C82.281 11.4427 83.7967 12.5833 85.0675 14.0625ZM89.8556 33V10.0156H94.2306V18.6875H95.1837C97.0067 18.6875 98.5223 18.901 99.7306 19.3281C100.949 19.7448 102.001 20.5469 102.887 21.7344C103.772 22.9115 104.215 24.3333 104.215 26C104.215 27.5729 103.835 28.9062 103.074 30C102.314 31.0938 101.429 31.8698 100.418 32.3281C99.4181 32.776 98.0431 33 96.2931 33H89.8556ZM94.2306 22.5938V28.8281H95.3244C97.1369 28.8281 98.3504 28.6042 98.965 28.1562C99.5796 27.7083 99.8869 26.9427 99.8869 25.8594C99.8869 23.6823 98.3035 22.5938 95.1369 22.5938H94.2306Z" fill="white"/>
</svg>
