<svg width="149" height="41" viewBox="0 0 149 41" fill="none" xmlns="http://www.w3.org/2000/svg">
<path d="M137 29.9999C137 33.3139 139.686 36 142.999 36C146.313 36 149 33.3139 149 29.9999C149 26.6861 146.313 24 142.999 24C139.686 24 137 26.6861 137 29.9999Z" fill="#E74362"/>
<path d="M4.64844 28.5195C6.09375 30.5378 7.78646 31.5469 9.72656 31.5469C11.0156 31.5469 12.0573 31.1823 12.8516 30.4531C13.6458 29.724 14.043 28.7539 14.043 27.543C14.043 26.3581 13.6523 25.375 12.8711 24.5938C12.1029 23.8125 10.5013 23.4219 8.06641 23.4219H6.89453V18.5391H8.06641C9.51172 18.5391 10.6055 18.207 11.3477 17.543C12.1029 16.8789 12.4805 15.987 12.4805 14.8672C12.4805 13.8385 12.168 13.0247 11.543 12.4258C10.918 11.8268 10.0911 11.5273 9.0625 11.5273C7.83854 11.5273 6.58203 12.1328 5.29297 13.3438L2.07031 9.75C3.80208 8.1875 5.2474 7.25651 6.40625 6.95703C7.5651 6.64453 8.63281 6.48828 9.60938 6.48828C11.9531 6.48828 13.9193 7.17188 15.5078 8.53906C17.1094 9.90625 17.9102 11.7487 17.9102 14.0664C17.9102 15.0951 17.7279 16.0977 17.3633 17.0742C17.0117 18.0508 16.0156 19.0859 14.375 20.1797C17.7344 21.6771 19.4141 24.2357 19.4141 27.8555C19.4141 30.5247 18.5156 32.6732 16.7188 34.3008C14.9349 35.9154 12.6367 36.7227 9.82422 36.7227C8.05339 36.7227 6.46484 36.4036 5.05859 35.7656C3.65234 35.1146 2.1224 33.7214 0.46875 31.5859L4.64844 28.5195ZM35.1844 7.26953H40.7117L49.95 30.8633H53.1531V40.2969H47.8602V36H28.0945V40.2969H22.8016V30.8633H25.9852L35.1844 7.26953ZM37.9969 14.8867L31.7078 30.8633H44.2664L37.9969 14.8867ZM57.9273 7.26953H73.6109V12.6211H63.357V17.8164H73.6109V23.0703H63.357V30.6289H73.6109V36H57.9273V7.26953ZM106.334 12.3281L102.506 15.9805C99.9021 13.2331 96.9724 11.8594 93.7172 11.8594C90.9698 11.8594 88.6521 12.7969 86.7641 14.6719C84.8891 16.5469 83.9516 18.8581 83.9516 21.6055C83.9516 23.5195 84.3682 25.2188 85.2016 26.7031C86.0349 28.1875 87.2133 29.3529 88.7367 30.1992C90.2602 31.0456 91.9529 31.4688 93.8148 31.4688C95.4034 31.4688 96.8552 31.1758 98.1703 30.5898C99.4854 29.9909 100.931 28.9102 102.506 27.3477L106.217 31.2148C104.095 33.2852 102.09 34.724 100.202 35.5312C98.3135 36.3255 96.1586 36.7227 93.7367 36.7227C89.2706 36.7227 85.6117 35.3099 82.7602 32.4844C79.9216 29.6458 78.5023 26.013 78.5023 21.5859C78.5023 18.7214 79.1469 16.1758 80.4359 13.9492C81.738 11.7227 83.5935 9.93229 86.0023 8.57812C88.4242 7.22396 91.0284 6.54688 93.8148 6.54688C96.1846 6.54688 98.4633 7.04818 100.651 8.05078C102.851 9.05339 104.746 10.4792 106.334 12.3281ZM112.32 36V7.26953H117.788V18.1094H118.98C121.258 18.1094 123.153 18.3763 124.663 18.9102C126.187 19.431 127.502 20.4336 128.609 21.918C129.715 23.3893 130.269 25.1667 130.269 27.25C130.269 29.2161 129.793 30.8828 128.843 32.25C127.892 33.6172 126.786 34.5872 125.523 35.1602C124.273 35.7201 122.554 36 120.366 36H112.32ZM117.788 22.9922V30.7852H119.155C121.421 30.7852 122.938 30.5052 123.706 29.9453C124.474 29.3854 124.859 28.4284 124.859 27.0742C124.859 24.3529 122.879 22.9922 118.921 22.9922H117.788Z" fill="white"/>
</svg>
