<svg width="28" height="28" viewBox="0 0 28 28" fill="none" xmlns="http://www.w3.org/2000/svg">
<path fill-rule="evenodd" clip-rule="evenodd" d="M2.625 7C2.625 6.51675 3.01675 6.125 3.5 6.125H16.625C17.1082 6.125 17.5 6.51675 17.5 7C17.5 7.48325 17.1082 7.875 16.625 7.875H3.5C3.01675 7.875 2.625 7.48325 2.625 7ZM19.25 7C19.25 6.51675 19.6418 6.125 20.125 6.125H24.5C24.9832 6.125 25.375 6.51675 25.375 7C25.375 7.48325 24.9832 7.875 24.5 7.875H20.125C19.6418 7.875 19.25 7.48325 19.25 7ZM2.625 14C2.625 13.5168 3.01675 13.125 3.5 13.125H7.875C8.35825 13.125 8.75 13.5168 8.75 14C8.75 14.4832 8.35825 14.875 7.875 14.875H3.5C3.01675 14.875 2.625 14.4832 2.625 14ZM10.5 14C10.5 13.5168 10.8918 13.125 11.375 13.125H24.5C24.9832 13.125 25.375 13.5168 25.375 14C25.375 14.4832 24.9832 14.875 24.5 14.875H11.375C10.8918 14.875 10.5 14.4832 10.5 14ZM2.625 21C2.625 20.5168 3.01675 20.125 3.5 20.125H16.625C17.1082 20.125 17.5 20.5168 17.5 21C17.5 21.4832 17.1082 21.875 16.625 21.875H3.5C3.01675 21.875 2.625 21.4832 2.625 21ZM19.25 21C19.25 20.5168 19.6418 20.125 20.125 20.125H24.5C24.9832 20.125 25.375 20.5168 25.375 21C25.375 21.4832 24.9832 21.875 24.5 21.875H20.125C19.6418 21.875 19.25 21.4832 19.25 21Z" fill="white"/>
<path fill-rule="evenodd" clip-rule="evenodd" d="M18.375 6.125C17.8918 6.125 17.5 6.51675 17.5 7C17.5 7.48325 17.8918 7.875 18.375 7.875C18.8582 7.875 19.25 7.48325 19.25 7C19.25 6.51675 18.8582 6.125 18.375 6.125ZM15.75 7C15.75 5.55025 16.9253 4.375 18.375 4.375C19.8247 4.375 21 5.55025 21 7C21 8.44975 19.8247 9.625 18.375 9.625C16.9253 9.625 15.75 8.44975 15.75 7Z" fill="white"/>
<path fill-rule="evenodd" clip-rule="evenodd" d="M9.625 13.125C9.14175 13.125 8.75 13.5168 8.75 14C8.75 14.4832 9.14175 14.875 9.625 14.875C10.1082 14.875 10.5 14.4832 10.5 14C10.5 13.5168 10.1082 13.125 9.625 13.125ZM7 14C7 12.5503 8.17525 11.375 9.625 11.375C11.0747 11.375 12.25 12.5503 12.25 14C12.25 15.4497 11.0747 16.625 9.625 16.625C8.17525 16.625 7 15.4497 7 14Z" fill="white"/>
<path fill-rule="evenodd" clip-rule="evenodd" d="M18.375 20.125C17.8918 20.125 17.5 20.5168 17.5 21C17.5 21.4832 17.8918 21.875 18.375 21.875C18.8582 21.875 19.25 21.4832 19.25 21C19.25 20.5168 18.8582 20.125 18.375 20.125ZM15.75 21C15.75 19.5503 16.9253 18.375 18.375 18.375C19.8247 18.375 21 19.5503 21 21C21 22.4497 19.8247 23.625 18.375 23.625C16.9253 23.625 15.75 22.4497 15.75 21Z" fill="white"/>
</svg>
