<svg width="64" height="64" viewBox="0 0 64 64" fill="none" xmlns="http://www.w3.org/2000/svg">
<rect width="64" height="64" rx="32" fill="#E74362"/>
<path fill-rule="evenodd" clip-rule="evenodd" d="M19.4201 20.3951C19.4201 13.5484 25.0509 8 31.9992 8C38.9474 8 44.5824 13.5484 44.5824 20.3951C44.5824 27.2459 38.9474 32.7943 31.9992 32.7943C25.0509 32.7943 19.4201 27.2459 19.4201 20.3951ZM32.0909 58.6667C40.3981 58.6667 47.916 55.3895 53.3346 50.1174V46.3773C53.3346 41.8548 49.516 38.1844 44.8013 38.1844H19.2013C14.4866 38.1844 10.668 41.8548 10.668 46.3773V49.9289C16.0994 55.3076 23.6898 58.6667 32.0909 58.6667Z" fill="white"/>
</svg>
