<svg width="12" height="11" viewBox="0 0 12 11" fill="none" xmlns="http://www.w3.org/2000/svg">
<path fill-rule="evenodd" clip-rule="evenodd" d="M6.00003 0.972412C6.16248 0.972412 6.30646 1.0713 6.35667 1.21736L7.49121 4.51767H11.25C11.4144 4.51767 11.5596 4.61884 11.6082 4.76725C11.6569 4.91565 11.5976 5.07672 11.4621 5.16458L8.4148 7.14008L9.58971 10.4312C9.64189 10.5774 9.58812 10.7387 9.45673 10.8301C9.32534 10.9216 9.14648 10.9222 9.01436 10.8317L6.00003 8.76664L2.98569 10.8317C2.85358 10.9222 2.67472 10.9216 2.54333 10.8301C2.41194 10.7387 2.35817 10.5774 2.41034 10.4312L3.58526 7.14008L0.537955 5.16458C0.402415 5.07672 0.343185 4.91565 0.391836 4.76725C0.440488 4.61884 0.585684 4.51767 0.750028 4.51767H4.50885L5.64339 1.21736C5.6936 1.0713 5.83758 0.972412 6.00003 0.972412ZM6.00003 2.47395L5.13792 4.98178C5.08771 5.12784 4.94373 5.22672 4.78128 5.22672H1.96L4.24335 6.70696C4.38175 6.79668 4.44025 6.96241 4.38659 7.11272L3.49646 9.60613L5.77999 8.04175C5.91126 7.95181 6.0888 7.95181 6.22007 8.04175L8.50359 9.60613L7.61347 7.11272C7.55981 6.96241 7.61831 6.79668 7.7567 6.70696L10.0401 5.22672H7.21878C7.05633 5.22672 6.91235 5.12784 6.86214 4.98178L6.00003 2.47395Z" fill="#BCBCBC"/>
</svg>
