<svg width="12" height="12" viewBox="0 0 12 12" fill="none" xmlns="http://www.w3.org/2000/svg">
<path d="M9.44962 11.6069C9.36542 11.6072 9.28327 11.5807 9.21485 11.531L5.99938 9.17015L2.7839 11.531C2.7152 11.5814 2.63244 11.6084 2.54757 11.6081C2.46271 11.6078 2.38015 11.5802 2.31181 11.5292C2.24348 11.4783 2.19292 11.4066 2.16745 11.3246C2.14197 11.2426 2.1429 11.1546 2.1701 11.0732L3.42419 7.31143L0.173961 5.05418C0.103559 5.00534 0.0504236 4.93498 0.0223183 4.85338C-0.00578693 4.77178 -0.00738897 4.68322 0.0177463 4.60063C0.0428816 4.51805 0.0934369 4.44576 0.162026 4.39434C0.230614 4.34293 0.313642 4.31507 0.398977 4.31484H4.40876L5.61885 0.543475C5.64492 0.462052 5.69578 0.391084 5.76414 0.34075C5.83251 0.290417 5.91486 0.263306 5.99938 0.263306C6.0839 0.263306 6.16625 0.290417 6.23461 0.34075C6.30297 0.391084 6.35384 0.462052 6.3799 0.543475L7.58999 4.31611H11.5998C11.6852 4.31607 11.7684 4.34373 11.8372 4.39505C11.906 4.44637 11.9568 4.51864 11.9821 4.60129C12.0074 4.68394 12.0059 4.77262 11.9778 4.85435C11.9497 4.93607 11.8965 5.00654 11.826 5.05544L8.57456 7.31143L9.8279 11.0722C9.84821 11.133 9.85392 11.198 9.84456 11.2615C9.83521 11.3251 9.81105 11.3855 9.7741 11.4377C9.73714 11.49 9.68844 11.5326 9.63202 11.562C9.5756 11.5914 9.51308 11.6068 9.44962 11.6069Z" fill="#F5FF7F"/>
</svg>
