<svg width="24" height="24" viewBox="0 0 24 24" fill="none" xmlns="http://www.w3.org/2000/svg">
<path fill-rule="evenodd" clip-rule="evenodd" d="M2.25 6C2.25 5.58579 2.58579 5.25 3 5.25H14.25C14.6642 5.25 15 5.58579 15 6C15 6.41421 14.6642 6.75 14.25 6.75H3C2.58579 6.75 2.25 6.41421 2.25 6ZM16.5 6C16.5 5.58579 16.8358 5.25 17.25 5.25H21C21.4142 5.25 21.75 5.58579 21.75 6C21.75 6.41421 21.4142 6.75 21 6.75H17.25C16.8358 6.75 16.5 6.41421 16.5 6ZM2.25 12C2.25 11.5858 2.58579 11.25 3 11.25H6.75C7.16421 11.25 7.5 11.5858 7.5 12C7.5 12.4142 7.16421 12.75 6.75 12.75H3C2.58579 12.75 2.25 12.4142 2.25 12ZM9 12C9 11.5858 9.33579 11.25 9.75 11.25H21C21.4142 11.25 21.75 11.5858 21.75 12C21.75 12.4142 21.4142 12.75 21 12.75H9.75C9.33579 12.75 9 12.4142 9 12ZM2.25 18C2.25 17.5858 2.58579 17.25 3 17.25H14.25C14.6642 17.25 15 17.5858 15 18C15 18.4142 14.6642 18.75 14.25 18.75H3C2.58579 18.75 2.25 18.4142 2.25 18ZM16.5 18C16.5 17.5858 16.8358 17.25 17.25 17.25H21C21.4142 17.25 21.75 17.5858 21.75 18C21.75 18.4142 21.4142 18.75 21 18.75H17.25C16.8358 18.75 16.5 18.4142 16.5 18Z" fill="#3182CE"/>
<path fill-rule="evenodd" clip-rule="evenodd" d="M15.75 5.25C15.3358 5.25 15 5.58579 15 6C15 6.41421 15.3358 6.75 15.75 6.75C16.1642 6.75 16.5 6.41421 16.5 6C16.5 5.58579 16.1642 5.25 15.75 5.25ZM13.5 6C13.5 4.75736 14.5074 3.75 15.75 3.75C16.9926 3.75 18 4.75736 18 6C18 7.24264 16.9926 8.25 15.75 8.25C14.5074 8.25 13.5 7.24264 13.5 6Z" fill="#3182CE"/>
<path fill-rule="evenodd" clip-rule="evenodd" d="M8.25 11.25C7.83579 11.25 7.5 11.5858 7.5 12C7.5 12.4142 7.83579 12.75 8.25 12.75C8.66421 12.75 9 12.4142 9 12C9 11.5858 8.66421 11.25 8.25 11.25ZM6 12C6 10.7574 7.00736 9.75 8.25 9.75C9.49264 9.75 10.5 10.7574 10.5 12C10.5 13.2426 9.49264 14.25 8.25 14.25C7.00736 14.25 6 13.2426 6 12Z" fill="#3182CE"/>
<path fill-rule="evenodd" clip-rule="evenodd" d="M15.75 17.25C15.3358 17.25 15 17.5858 15 18C15 18.4142 15.3358 18.75 15.75 18.75C16.1642 18.75 16.5 18.4142 16.5 18C16.5 17.5858 16.1642 17.25 15.75 17.25ZM13.5 18C13.5 16.7574 14.5074 15.75 15.75 15.75C16.9926 15.75 18 16.7574 18 18C18 19.2426 16.9926 20.25 15.75 20.25C14.5074 20.25 13.5 19.2426 13.5 18Z" fill="#3182CE"/>
</svg>
