<svg width="12" height="20" viewBox="0 0 12 20" fill="none" xmlns="http://www.w3.org/2000/svg">
<path d="M10.8496 0.9C11.0996 1.15 11.2246 1.446 11.2246 1.788C11.2246 2.12933 11.0996 2.425 10.8496 2.675L3.52461 10L10.8746 17.35C11.1079 17.5833 11.2246 17.875 11.2246 18.225C11.2246 18.575 11.0996 18.875 10.8496 19.125C10.5996 19.375 10.3036 19.5 9.96161 19.5C9.62028 19.5 9.32461 19.375 9.07461 19.125L0.674609 10.7C0.574609 10.6 0.503609 10.4917 0.46161 10.375C0.420276 10.2583 0.399609 10.1333 0.399609 10C0.399609 9.86667 0.420277 9.74167 0.46161 9.625C0.50361 9.50833 0.574609 9.4 0.674609 9.3L9.09961 0.875C9.33294 0.641666 9.62028 0.524999 9.96161 0.525C10.3036 0.525 10.5996 0.65 10.8496 0.9Z" fill="#ADADAD"/>
</svg>
